<?xml version="1.0" encoding="iso-8859-1"?>

<!DOCTYPE svg PUBLIC "-//W3C//DTD SVG 1.1//EN" "http://www.w3.org/Graphics/SVG/1.1/DTD/svg11.dtd">
<!-- Uploaded to: SVG Repo, www.svgrepo.com, Generator: SVG Repo Mixer Tools -->
<svg height="800px" width="800px" version="1.1" id="_x35_" xmlns="http://www.w3.org/2000/svg" xmlns:xlink="http://www.w3.org/1999/xlink" 
	 viewBox="0 0 512 512"  xml:space="preserve">
<g>
	<path style="fill:#1A5669;" d="M255.993,13.375c-57.326,0-116.529-32.653-148.466,4.082
		C75.583,54.194,48.345,146.783,48.345,212.731c0,53.899,15.536,103.615,41.722,143.583l29.566-95.577
		c-17.667-19.591-28.585-46.656-28.585-76.55c0-29.899,10.918-56.967,28.585-76.557c17.66-19.594,42.058-31.714,69.005-31.714
		c13.062,0,25.528,2.854,36.915,8.035c11.38,5.167,21.694,12.665,30.441,21.942V13.375z"/>
	<path style="fill:#DADBC4;" d="M255.993,105.892c-8.747-9.276-19.061-16.775-30.441-21.942
		c-11.387-5.181-23.853-8.035-36.915-8.035c-26.947,0-51.345,12.12-69.005,31.714c-17.667,19.59-28.585,46.659-28.585,76.557
		c0,29.894,10.987,76.55,10.987,76.55l-11.967,95.577c5.86,8.934,12.235,17.392,19.099,25.287
		c37.576,43.222,89.501,80.154,146.827,80.154"/>
	<path style="fill:#DADBC4;" d="M60.027,218.006l-46.146-27.048c0,0-23.069,72.125,65.672,144.245
		C79.553,293.732,60.027,218.006,60.027,218.006z"/>
	<path style="fill:#0F4256;" d="M255.993,13.375c57.347,0,116.539-32.653,148.48,4.082c31.941,36.738,59.186,129.327,59.186,195.275
		c0,53.899-15.54,103.615-41.733,143.583l-29.559-95.577c17.67-19.591,28.589-46.656,28.589-76.55
		c0-29.899-10.918-56.967-28.589-76.557c-17.656-19.594-42.052-31.714-69.005-31.714c-13.062,0-25.528,2.854-36.908,8.035
		c-11.387,5.167-21.701,12.665-30.461,21.942V13.375z"/>
	<path style="fill:#D3D7CA;" d="M255.993,105.892c8.761-9.276,19.075-16.775,30.461-21.942c11.38-5.181,23.846-8.035,36.908-8.035
		c26.953,0,51.348,12.12,69.005,31.714c17.67,19.59,28.589,46.659,28.589,76.557c0,29.894-10.987,76.55-10.987,76.55l11.957,95.577
		c-5.856,8.934-12.228,17.392-19.095,25.287c-37.573,43.222-89.491,80.154-146.838,80.154"/>
	<path style="fill:#D3D7CA;" d="M451.98,218.006l46.137-27.048c0,0,23.072,72.125-65.666,144.245
		C432.451,293.732,451.98,218.006,451.98,218.006z"/>
	<path style="fill:#FFFFFF;" d="M187.24,345.409c0,0-2.097,25.175,12.581,39.463c4.201-17.691,16.789-39.463,16.789-39.463H187.24z"
		/>
	<path style="fill:#FFFFFF;" d="M334.538,345.409c0,0,2.11,25.175-12.581,39.463c-4.187-17.691-16.781-39.463-16.781-39.463H334.538
		z"/>
	<g>
		<g>
			<path style="fill:#6F97A1;" d="M162.173,316.835c0,3.929,0.509,7.801,1.859,11.475c1.005,2.748,2.518,5.374,4.56,7.661
				c3.074,3.447,7.268,6.039,12.323,7.678c5.069,1.649,11.027,2.436,18.146,2.44c23.669,0,139.617,0,139.617,0
				c3.386,0,6.121-2.742,6.121-6.125c0-3.379-2.735-6.118-6.121-6.118c0,0-28.988,0-60.936,0c-31.947,0-66.854,0-78.681,0
				c-5.503,0-9.853-0.566-13.158-1.482c-2.477-0.686-4.356-1.558-5.788-2.515c-2.152-1.445-3.386-3.009-4.316-5.072
				c-0.889-2.056-1.384-4.706-1.377-7.943c0-3.386-2.742-6.124-6.128-6.124C164.915,310.711,162.173,313.448,162.173,316.835z"/>
		</g>
	</g>
	<g style="opacity:0.67;">
		<g>
			<polygon style="fill:#A2CED3;" points="232.338,267.845 255.993,278.732 255.993,293.698 			"/>
			<polygon style="fill:#81B0B6;" points="279.669,267.845 255.993,278.732 255.993,293.698 			"/>
		</g>
	</g>
	<path style="fill:#D76A77;" d="M207.699,223.958c0,18.328-14.854,33.182-33.176,33.182c-18.328,0-33.186-14.854-33.186-33.182
		c0-18.325,14.858-33.179,33.186-33.179C192.845,190.779,207.699,205.633,207.699,223.958z"/>
	<path style="fill:#923122;" d="M188.808,223.958c0,7.892-6.399,14.291-14.284,14.291c-7.892,0-14.291-6.399-14.291-14.291
		c0-7.892,6.399-14.288,14.291-14.288C182.408,209.67,188.808,216.066,188.808,223.958z"/>
	<path style="fill:#D76A77;" d="M370.991,223.958c0,18.328-14.854,33.182-33.182,33.182c-18.322,0-33.176-14.854-33.176-33.182
		c0-18.325,14.854-33.179,33.176-33.179C356.137,190.779,370.991,205.633,370.991,223.958z"/>
	<path style="fill:#923122;" d="M352.107,223.958c0,7.892-6.406,14.291-14.298,14.291c-7.878,0-14.284-6.399-14.284-14.291
		c0-7.892,6.405-14.288,14.284-14.288C345.701,209.67,352.107,216.066,352.107,223.958z"/>
	<path style="fill:#CF5C61;" d="M454.843,352.894l-198.85,108.861v29.938L512,434.541C512,434.541,507.922,393.718,454.843,352.894z
		"/>
	<path style="fill:#D66C6E;" d="M57.153,352.894l198.84,108.861v29.938L0,434.541C0,434.541,4.082,393.718,57.153,352.894z"/>
</g>
</svg>