<?xml version="1.0" encoding="iso-8859-1"?>
<!-- Uploaded to: SVG Repo, www.svgrepo.com, Generator: SVG Repo Mixer Tools -->
<svg height="800px" width="800px" version="1.1" id="Layer_1" xmlns="http://www.w3.org/2000/svg" xmlns:xlink="http://www.w3.org/1999/xlink" 
	 viewBox="0 0 393.309 393.309" xml:space="preserve">
<circle style="fill:#EE4A68;" cx="196.655" cy="196.655" r="196.655"/>
<path style="fill:#4485C5;" d="M288.905,260.525l-20.622,20.558l-33.681-33.616l-3.426,3.426
	c-7.111-13.253-16.873-29.996-30.19-50.036c-4.913-7.434-10.99-14.028-17.842-20.04c19.459-34.974,56.372-65.875,126.125-64.517
	c0,0.259,0,0.582,0,0.84c0,2.909,0.453,5.818,1.293,8.469C287.677,141.511,250.893,181.398,288.905,260.525z"/>
<path style="fill:#6EB1E1;" d="M231.176,250.958l-30.255,30.19l-33.616-33.616l-33.681,33.616l-21.657-21.592
	c8.469-32.453,13.511-90.182-43.701-121.341l0,0c0-1.487-0.194-2.974-0.453-4.396c29.931,5.172,103.24,21.98,133.172,67.168
	C214.238,220.962,224.065,237.705,231.176,250.958z"/>
<polygon style="fill:#FBD303;" points="301.964,304.937 301.964,247.531 268.283,281.083 234.602,247.531 200.921,281.083 
	167.305,247.531 133.624,281.083 99.879,247.531 99.879,304.937 "/>
<g>
	<circle style="fill:#FCFCFD;" cx="338.036" cy="117.204" r="28.832"/>
	<circle style="fill:#FCFCFD;" cx="47.386" cy="138.15" r="20.945"/>
</g>
</svg>