<?xml version="1.0" ?>
<!-- Uploaded to: SVG Repo, www.svgrepo.com, Generator: SVG Repo Mixer Tools -->
<svg width="800px" height="800px" viewBox="0 0 512 512" enable-background="new 0 0 512 512" id="flat" version="1.1" xml:space="preserve" xmlns="http://www.w3.org/2000/svg" xmlns:xlink="http://www.w3.org/1999/xlink">
<path d="M339.977,165.006L328,168v-64h26.308c7.227,0,12.778,6.401,11.756,13.555l-3.145,22.013  C361.154,151.923,352.084,161.979,339.977,165.006z" fill="#C9B29C"/>
<path d="M172.023,165.006L184,168v-64h-26.308c-7.227,0-12.778,6.401-11.756,13.555l3.145,22.013  C150.846,151.923,159.916,161.979,172.023,165.006z" fill="#C9B29C"/>
<path d="M326.561,72.387c0.461-1.944,0.712-3.97,0.712-6.055c0-14.46-11.722-26.182-26.182-26.182  c-3.409,0-6.662,0.658-9.648,1.844c-3.023-11.119-13.184-19.298-25.261-19.298c-14.46,0-26.182,11.722-26.182,26.182  c0,8.091,3.672,15.324,9.439,20.126c-0.46,1.944-0.712,3.97-0.712,6.055c0,14.46,11.722,26.182,26.182,26.182  c3.409,0,6.662-0.659,9.648-1.844c3.023,11.119,13.184,19.299,25.261,19.299c14.46,0,26.182-11.722,26.182-26.182  C336,84.422,332.328,77.19,326.561,72.387z" fill="#FFD572"/>
<path d="M394.912,278.304L304,248h-96l-90.912,30.304C99.717,284.094,88,300.351,88,318.661V504h336V318.661  C424,300.351,412.283,284.094,394.912,278.304z" fill="#E65C64"/>
<path d="M256,296L256,296c-22.091,0-40-17.909-40-40v-72h80v72C296,278.091,278.091,296,256,296z" fill="#C9B29C"/>
<path d="M332.66,87.808L312,94.695h-24l-32-16l24-24l-24-8l-7.808-15.615C207.675,35.005,176,69.147,176,110.695  v26.918c0,37.435,21.151,71.658,54.634,88.399l0,0c15.968,7.984,34.764,7.984,50.733,0l0,0C314.849,209.27,336,175.048,336,137.613  v-26.918C336,102.739,334.822,95.061,332.66,87.808z" fill="#E6CCB3"/>
<g>
<path d="M232,126.695c-2.047,0-4.095-0.781-5.657-2.343l-16-16c-3.125-3.125-3.125-8.189,0-11.314   c3.124-3.123,8.189-3.123,11.313,0l16,16c3.125,3.125,3.125,8.189,0,11.314C236.095,125.914,234.047,126.695,232,126.695z" fill="#9E3F45"/>
</g>
<g>
<path d="M216,126.695c-2.047,0-4.095-0.781-5.657-2.343c-3.125-3.125-3.125-8.189,0-11.314l16-16   c3.124-3.123,8.189-3.123,11.313,0c3.125,3.125,3.125,8.189,0,11.314l-16,16C220.095,125.914,218.047,126.695,216,126.695z" fill="#9E3F45"/>
</g>
<g>
<path d="M296,126.695c-2.047,0-4.095-0.781-5.657-2.343l-16-16c-3.125-3.125-3.125-8.189,0-11.314   c3.124-3.123,8.189-3.123,11.313,0l16,16c3.125,3.125,3.125,8.189,0,11.314C300.095,125.914,298.047,126.695,296,126.695z" fill="#9E3F45"/>
</g>
<g>
<path d="M280,126.695c-2.047,0-4.095-0.781-5.657-2.343c-3.125-3.125-3.125-8.189,0-11.314l16-16   c3.124-3.123,8.189-3.123,11.313,0c3.125,3.125,3.125,8.189,0,11.314l-16,16C284.095,125.914,282.047,126.695,280,126.695z" fill="#9E3F45"/>
</g>
<g>
<path d="M256,158.695c-2.047,0-4.095-0.781-5.657-2.343l-8-8c-2.435-2.436-3.039-6.155-1.499-9.235l8-16   c1.975-3.951,6.782-5.554,10.733-3.577c3.952,1.976,5.554,6.781,3.578,10.733l-5.421,10.842l3.923,3.923   c3.125,3.125,3.125,8.189,0,11.314C260.095,157.914,258.047,158.695,256,158.695z" fill="#592427"/>
</g>
<path d="M273.586,198.695h-35.172c-7.961,0-14.414-6.453-14.414-14.414v-9.586h64v9.586  C288,192.242,281.547,198.695,273.586,198.695z" fill="#9E3F45"/>
<g>
<path d="M272,238.695c-4.418,0-8-3.582-8-8v-40c0-4.418,3.582-8,8-8s8,3.582,8,8v40   C280,235.113,276.418,238.695,272,238.695z" fill="#592427"/>
</g>
<path d="M152,392c-4.418,0-8,3.582-8,8v104h16V400C160,395.582,156.418,392,152,392z" fill="#9E3F45"/>
<path d="M360,392c-4.418,0-8,3.582-8,8v104h16V400C368,395.582,364.418,392,360,392z" fill="#9E3F45"/>
<g>
<path d="M296.007,360.001c-2.522,0-5.004-1.189-6.561-3.413c-2.534-3.62-1.654-8.608,1.966-11.142l80-56   c3.619-2.533,8.607-1.654,11.142,1.966c2.534,3.62,1.654,8.608-1.966,11.142l-80,56   C299.191,359.531,297.591,360.001,296.007,360.001z" fill="#9E3F45"/>
</g>
<g>
<path d="M368.007,328.001c-2.585,0-5.122-1.251-6.664-3.563l-16-24c-2.451-3.676-1.458-8.644,2.219-11.094   c3.675-2.451,8.643-1.457,11.094,2.219l16,24c2.451,3.676,1.458,8.644-2.219,11.094   C371.074,327.565,369.532,328.001,368.007,328.001z" fill="#9E3F45"/>
</g>
<g>
<path d="M344.007,344.001c-2.585,0-5.122-1.251-6.664-3.563l-16-24c-2.451-3.676-1.458-8.644,2.219-11.094   c3.675-2.451,8.644-1.458,11.094,2.219l16,24c2.451,3.676,1.458,8.644-2.219,11.094   C347.074,343.565,345.532,344.001,344.007,344.001z" fill="#9E3F45"/>
</g>
<g>
<path d="M320.007,360.001c-2.585,0-5.122-1.251-6.664-3.563l-16-24c-2.451-3.676-1.458-8.644,2.219-11.094   c3.677-2.45,8.643-1.457,11.094,2.219l16,24c2.451,3.676,1.458,8.644-2.219,11.094   C323.074,359.565,321.532,360.001,320.007,360.001z" fill="#9E3F45"/>
</g>
<polygon fill="#4D5166" points="192,384 232,376 248,408 280,408 240,448 216,424 176,424 "/>
<path d="M164.373,104l45.287-16.27c23.675-8.506,40.179-30.084,42.187-55.16L253.815,8l-52.841,13.033  c-27.328,6.74-44.86,33.385-40.235,61.15L164.373,104z" fill="#4D5166"/>
</svg>